<svg viewBox="13.754261363636363 6.577999999999999 394.0894886363636 276.874" xmlns:xlink="http://www.w3.org/1999/xlink" xmlns="http://www.w3.org/2000/svg" style="max-height: 500px" width="394.0894886363636" height="276.874"><defs><linearGradient y2="50.969925" x2="188.511" y1="138.59656" x1="233.39499" gradientUnits="userSpaceOnUse" id="gradient_0"><stop stop-color="#F98816" offset="0"/><stop stop-color="#E24B2A" offset="1"/></linearGradient></defs><path d="M208.879 43.5949C220.653 42.5176 230.115 48.8129 239.976 54.1511L261.933 65.9313L283.266 77.3853C287.837 79.7861 292.479 81.9922 296.918 84.63C306.361 90.2412 306.323 99.6522 296.927 105.257C292.713 107.771 288.278 109.968 283.913 112.226C277.384 115.594 270.882 119.015 264.409 122.49C252.262 128.935 240.361 135.987 227.99 141.905C223.187 144.203 219.475 145.341 214.309 146.486C202.728 147.136 196.914 143.335 187.027 138.059L163.569 125.378C156.245 121.502 148.943 117.636 141.569 113.8C135.39 110.535 128.929 107.636 123.181 103.633C115.319 98.1565 117.612 88.9412 125.328 84.7202C128.951 82.7379 132.679 80.8602 136.312 78.9185L160.704 65.8221C166.232 62.8887 171.743 59.9214 177.234 56.9203C183.277 53.5439 188.769 50.197 195.164 47.382C199.53 45.4689 204.149 44.1935 208.879 43.5949Z" fill="url(#gradient_0)"/><path d="M107.409 19.8566C110.196 19.573 115.694 19.4066 116.445 23.0722C117.419 27.8266 117.265 34.864 116.101 39.6152C115.903 40.4235 114.363 41.2713 113.524 41.4024C103.385 41.899 92.3283 41.2381 88.1277 52.9483C84.2235 63.8322 85.6278 77.6009 85.5211 89.1262C85.2975 113.259 86.9311 136.033 60.3158 145.879C65.12 146.882 70.6036 150.029 74.0112 153.676C92.5554 174.64 82.2624 206.385 86.4811 231.851C88.5824 244.535 93.1864 249.372 106.506 250.094C115.021 250.556 117.905 249.435 117.464 259.921C117.367 262.219 118.076 268.648 115.865 270.429C110.741 272.796 99.3633 271.442 94.0615 270.602C87.2818 269.606 80.4862 267.193 74.9622 263.068C51.4654 245.521 62.4983 204.15 58.7603 178.875C56.5115 163.669 49.829 158.61 34.9695 157.032C32.8845 156.81 30.1939 156.859 28.4809 155.476C27.1712 154.419 26.8622 152.621 26.7141 151.045C26.4477 148.209 26.4863 145.246 26.5329 142.398C26.5633 140.54 26.5764 137.898 27.8661 136.432C29.6618 134.391 39.3584 133.966 42.5366 133.188C45.1107 132.557 47.5752 131.547 49.7607 130.031C70.4718 115.667 48.7837 61.1333 68.9411 34.4548C69.3247 33.9461 69.7207 33.4469 70.1287 32.9576C79.7657 21.4365 93.9335 21.0816 107.409 19.8566Z" fill="#383D42"/><path d="M313.36 19.8519C323.6 20.0333 333.284 20.9406 342.566 25.5625C360.721 34.5923 361.624 54.6358 362.385 72.3422C363.011 86.8958 360.764 104.202 364.402 118.164C367.051 128.328 375.808 134.105 385.849 134.286C387.74 134.481 391.761 134.7 393.296 135.64C396.414 137.904 395.112 145.279 395.432 148.673C395.68 151.308 395.385 155.716 392.39 156.148C382.419 157.583 372.111 157.476 366.558 167.743C362.593 175.076 362.497 184.692 362.426 192.908C361.816 213.249 365.325 235.963 355.177 254.6C349.701 264.353 339.767 267.81 329.685 270.363C325.842 270.708 306.671 274.147 305.193 268.815C304.462 266.176 304.342 256.38 305.283 253.36C306.328 250.005 311.482 250.151 314.299 250.117C322.851 250.001 331.082 247.596 334.218 238.626C343.229 208.505 322.628 160.964 361.136 145.774C360.118 145.3 359.109 144.807 358.11 144.294C353.615 141.972 348.363 138.655 345.16 134.436C333.035 117.716 337.436 93.1086 336.611 73.5528C335.963 58.1993 336.318 42.4731 316.156 41.6415C312.697 41.4988 309.625 41.9858 306.471 40.3794C305.891 39.4033 305.297 38.0852 305.332 36.7357C305.419 33.3551 304.38 24.4122 306.19 21.7818C307.369 20.0674 311.498 19.9803 313.36 19.8519Z" fill="#383D42"/><defs><linearGradient y2="242.85666" x2="240.94141" y1="151.01053" x1="181.14661" gradientUnits="userSpaceOnUse" id="gradient_1"><stop stop-color="#F78C1E" offset="0"/><stop stop-color="#FDDA24" offset="1"/></linearGradient></defs><path d="M279.291 178.018C281.018 178.492 282.98 179.461 284.556 180.331C290.474 183.599 299.458 186.601 302.949 192.81C308.564 202.796 295.872 207.717 289.142 211.291C285.921 213.021 282.717 214.783 279.53 216.575L232.605 241.971C209.166 254.665 202.679 248.705 181.305 237.15L147.767 219.022C143.586 216.719 139.376 214.468 135.14 212.267C129.317 209.272 119.85 205.645 118.398 198.552C117.152 192.461 122.683 188.544 127.217 185.757C131.806 182.937 136.83 180.618 141.686 178.249C144.235 178.019 149.476 181.478 151.939 182.749C161.712 188.089 172.171 193.12 181.785 198.671C195.248 206.444 207.057 211.73 222.92 207.35C229.534 205.524 236.292 201.229 242.443 197.866L266.743 184.769C270.722 182.629 275.33 179.876 279.291 178.018Z" fill="url(#gradient_1)"/><defs><linearGradient y2="190.82343" x2="237.81282" y1="101.03837" x1="184.00505" gradientUnits="userSpaceOnUse" id="gradient_2"><stop stop-color="#ED691B" offset="0"/><stop stop-color="#FDAA1F" offset="1"/></linearGradient></defs><path d="M141.887 127.214C144.559 127.091 153.05 132.302 155.94 133.842C162.195 137.129 168.434 140.448 174.655 143.799C179.913 146.666 185.71 149.845 190.863 152.504C212.309 163.568 226.437 156.127 245.707 144.946C252.264 141.141 259.963 137.46 266.777 133.875C270.944 131.682 274.613 128.646 279.067 127.101C279.42 127.185 279.77 127.283 280.116 127.393C282.022 128 285.092 129.554 287.029 130.516C292.883 133.476 300.014 136.544 303.365 142.535C305.116 145.683 304.095 150.624 301.434 152.962C298.861 155.223 295.291 157.199 292.272 158.874C288.157 161.156 283.851 163.531 279.583 165.504L244.402 184.264C235.536 189.014 225.322 195.811 215.347 197.362C204.737 199.012 194.963 193.433 185.973 188.532C180.546 185.564 175.102 182.626 169.642 179.719L137.828 162.735C132.675 159.946 121.266 155.271 118.936 149.83C114.791 140.152 126.633 134.906 133.358 131.439C136.093 130.028 138.973 128.504 141.887 127.214Z" fill="url(#gradient_2)"/></svg>